<?xml version="1.0" standalone="no"?>
<!DOCTYPE svg PUBLIC "-//W3C//DTD SVG 20010904//EN"
 "http://www.w3.org/TR/2001/REC-SVG-20010904/DTD/svg10.dtd">
<svg version="1.0" xmlns="http://www.w3.org/2000/svg"
 width="16.000000pt" height="16.000000pt" viewBox="0 0 16.000000 16.000000"
 preserveAspectRatio="xMidYMid meet">
<metadata>
Created by potrace 1.11, written by Peter Selinger 2001-2013
</metadata>
<g transform="translate(0.000000,16.000000) scale(0.002807,-0.002807)"
fill="#000000" stroke="none">
<path d="M2 5163 l3 -538 717 0 c464 0 720 -4 726 -10 5 -6 86 -140 179 -300
182 -311 663 -1130 876 -1490 71 -121 137 -233 147 -250 29 -50 223 -380 225
-383 2 -2 204 351 313 548 14 25 71 126 127 225 121 212 307 543 378 670 28
50 58 104 68 120 10 17 32 57 50 90 17 33 38 67 45 76 8 8 14 18 14 21 0 2 37
70 81 149 45 79 93 164 107 189 14 25 45 80 69 123 44 78 87 155 107 192 6 11
14 22 18 25 3 3 331 5 727 5 l721 0 0 537 0 538 -2850 0 -2850 0 2 -537z"/>
<path d="M0 2853 l0 -1464 128 2 c222 4 370 39 441 105 l36 32 3 1312 c2 1449
7 1349 -61 1391 -94 57 -196 77 -424 83 l-123 4 0 -1465z"/>
<path d="M5507 4314 c-1 -1 -33 -4 -71 -7 -109 -10 -210 -44 -255 -87 -21 -21
-40 -48 -42 -61 -3 -13 -4 -206 -3 -429 1 -223 3 -800 5 -1283 3 -915 4 -929
46 -963 72 -59 208 -91 395 -93 l118 -2 -2 1463 -3 1463 -93 0 c-51 0 -94 0
-95 -1z"/>
<path d="M4213 3573 c-28 -49 -60 -104 -71 -123 -11 -19 -102 -177 -202 -350
-101 -173 -191 -328 -200 -345 -92 -163 -256 -446 -271 -467 -11 -15 -19 -29
-19 -32 0 -2 -26 -49 -58 -103 -32 -54 -61 -105 -65 -113 -4 -8 -13 -24 -20
-35 -17 -28 -170 -292 -194 -335 -11 -19 -91 -156 -177 -304 -86 -148 -156
-273 -156 -278 0 -4 -49 -8 -109 -8 l-110 0 -33 58 c-18 31 -38 66 -45 77 -7
11 -16 27 -20 35 -4 8 -55 94 -112 190 -105 178 -236 398 -443 750 -63 107
-159 269 -213 360 -54 91 -105 179 -115 195 -9 17 -100 170 -200 340 -101 171
-201 340 -223 378 -21 37 -42 67 -45 67 -4 0 -7 -442 -7 -982 0 -795 3 -989
14 -1015 19 -47 78 -84 170 -108 98 -25 113 -26 271 -31 85 -3 160 -7 165 -8
8 -3 12 -221 6 -293 -1 -10 -181 -13 -866 -13 l-865 0 0 -540 0 -540 2850 0
2850 0 0 540 0 540 -1000 0 -1000 0 -1 23 c-3 62 -1 279 3 282 2 2 55 5 119 6
181 2 304 26 376 73 17 11 40 34 50 51 17 29 18 82 19 1088 0 581 0 1057 -1
1057 0 0 -24 -39 -52 -87z"/>
</g>
</svg>
