<?xml version="1.0" encoding="utf-8"?>
<!-- Generator: Adobe Illustrator 16.0.4, SVG Export Plug-In . SVG Version: 6.00 Build 0)  -->
<!DOCTYPE svg PUBLIC "-//W3C//DTD SVG 1.1//EN" "http://www.w3.org/Graphics/SVG/1.1/DTD/svg11.dtd">
<svg version="1.1" id="Layer_1" xmlns="http://www.w3.org/2000/svg" xmlns:xlink="http://www.w3.org/1999/xlink" x="0px" y="0px"
	 width="651.9px" height="116.6px" viewBox="0 0 651.9 116.6" style="enable-background:new 0 0 651.9 116.6;" xml:space="preserve"
	>
<style type="text/css">
<![CDATA[
	.st0{stroke:#000000;stroke-width:5;stroke-miterlimit:10;}
]]>
</style>
<g>
	<path class="st0" d="M121.9,101.7c0,4.9,4.5,7.3,13.6,7.3v2.4H92.2v-2.4c9.1,0,13.6-2.4,13.6-7.3V42.6L66,111.4h-2.1L25,45.5v56.2
		c0,4.9,5,7.3,15.1,7.3v2.4h-37v-2.4c10.1,0,15.1-2.4,15.1-7.3V41.1c0-4.9-5-7.3-14.9-7.3v-2.4h30.9l35.9,61l34.4-61h30.9v2.4
		c-9.1,0-13.6,2.4-13.6,7.3L121.9,101.7z"/>
	<path class="st0" d="M233.4,97.4c2.3,3.9,4.4,6.9,6.3,8.8c1.9,1.9,4.7,2.9,8.5,2.9v2.4h-39.6v-2.4c4-0.1,6.8-0.4,8.4-1
		s2.4-1.6,2.4-3c0-1.5-1.3-4.6-3.8-9.3l-5.6-10.5h-40.8c-0.3,0.9-1.4,3-3.1,6.2c-1.7,3.2-3,5.8-3.9,7.7c-0.9,1.9-1.3,3.6-1.3,5
		c0,3.3,3.5,5,10.7,5v2.4h-30.9v-2.4c4.3-0.3,7.7-1.9,10.1-4.9c2.4-3,5.7-8.4,9.9-16.1l31.6-58.2h3.1L233.4,97.4z M172.1,80.3h35.8
		l-18.1-33.2L172.1,80.3z"/>
	<path class="st0" d="M257.5,87.1h3.5c2.6,6.1,6.6,11.2,12.2,15.3c5.6,4.1,12.3,6.1,20.1,6.1c5.3,0,9.6-1.3,13-3.9
		c3.4-2.6,5.2-5.8,5.2-9.6c0-1.5-0.3-2.9-0.7-4.4c-1.3-3.6-3.9-6.5-7.6-8.7c-3.7-2.2-9.6-5-17.6-8.6c-8-3.6-13.9-7.1-17.8-10.4
		c-3.8-3.4-5.8-7.6-5.8-12.8c0-5.9,2.6-10.7,7.9-14.5c5.3-3.8,11.8-5.7,19.7-5.7c4.4,0,9,0.7,13.9,2c4.9,1.3,7.7,2,8.5,2
		c2.3,0,4.1-1.3,5.2-4h3.3l3.6,25.7h-4c-1.2-3.8-3.1-7.2-5.8-10.4c-2.7-3.2-5.9-5.7-9.8-7.5c-3.8-1.8-8.1-2.8-12.7-2.8
		c-4.9,0-8.9,1-11.8,3c-3,2-4.5,4.8-4.5,8.5c0,5.1,5.5,10.2,16.5,15.2c10.3,4.9,17.4,8.3,21.2,10.3c3.8,2,7.1,4.6,9.9,7.7
		c2.8,3.1,4.2,6.9,4.2,11.5c0,5.9-3,11.1-8.9,15.5c-5.9,4.4-13.9,6.6-23.9,6.6c-3.2,0-6.1-0.2-8.6-0.7c-2.5-0.5-5.4-1.1-8.7-1.9
		c-3.3-0.8-5.6-1.2-7-1.2c-2.8,0-4.3,1.3-4.7,3.8h-3.3L257.5,87.1z"/>
	<path class="st0" d="M444.5,71.5c0,5.8-1.2,11.3-3.6,16.3c-2.4,5-5.8,9.4-10.3,13.2c-4.5,3.8-9.9,6.7-16.2,8.8s-13.3,3.2-20.9,3.2
		c-9.1,0-17.6-1.7-25.4-5.2c-7.8-3.4-14-8.3-18.7-14.6s-6.9-13.6-6.9-21.8c0-7.9,2.1-15,6.3-21.4c4.2-6.4,10.2-11.3,17.9-14.9
		c7.7-3.6,16.6-5.4,26.7-5.4c9.4,0,17.9,1.8,25.7,5.3c7.8,3.5,13.9,8.4,18.5,14.8C442.2,56.2,444.5,63.4,444.5,71.5z M360.3,71.5
		c0,11.7,3.1,20.8,9.2,27.4c6.1,6.5,14.1,9.8,24.1,9.8c8.1-0.4,14.6-2.6,19.6-6.3s8.5-8.4,10.5-13.9c2.1-5.5,3.1-11.1,3.1-17
		c0-6.7-1.1-12.9-3.4-18.6c-2.2-5.6-5.9-10.2-10.8-13.6c-5-3.4-11.3-5.2-19-5.2C371.4,35.2,360.3,47.7,360.3,71.5z"/>
	<path class="st0" d="M465,41.1c0-4.9-4.4-7.3-13.2-7.3v-2.4h41c13.2,0,23.5,1.8,30.7,5.4c7.2,3.6,10.8,8.9,10.8,15.9
		c0,6-2.7,10.6-8,13.9c-5.3,3.3-12.1,5.4-20.3,6.2l30.9,29.6c2.4,2.2,4.7,3.8,6.8,4.8c2.1,1,4.8,1.6,8,1.8v2.4h-25.2l-37-37.1
		l-8.7,0.2v27.3c0,4.9,4.5,7.3,13.6,7.3v2.4h-42.7v-2.4c8.8,0,13.2-2.4,13.2-7.3V41.1z M480.8,70c12.2-0.4,21.4-1.8,27.4-4.3
		c6-2.5,9.1-6.8,9.1-13.1c0-5.7-2.3-9.9-6.8-12.6c-4.5-2.7-10.6-4.1-18.2-4.1c-3.8,0-6.5,0.1-7.9,0.3c-1.4,0.2-2.4,0.6-2.9,1.4
		c-0.5,0.8-0.8,2.1-0.8,4V70z"/>
	<path class="st0" d="M555.5,111.4v-2.4c9.1,0,13.6-2.4,13.6-7.3V41.1c0-4.9-4.5-7.3-13.6-7.3v-2.4H638v17.2h-3.3
		c-0.9-3.5-2.8-6.5-5.7-8.8c-2.9-2.3-6.9-3.5-12-3.5h-25.2c-2,0-3.6,0.4-4.9,1.3s-1.9,2-1.9,3.5v26H607c6,0,10.8-0.8,14.2-2.5
		c3.4-1.7,5.2-4.8,5.2-9.2h3.3v28.4h-3.3c0-4.4-1.7-7.5-5.1-9.2c-3.4-1.7-8.2-2.6-14.2-2.6H585v29.7c0,3.2,1.3,4.7,4,4.7h20.8
		c5.4,0,9.9-0.3,13.3-0.8c3.5-0.5,6.9-1.9,10.3-4.2c3.4-2.3,6.4-5.8,8.9-10.5h4.3l-7.1,20.5H555.5z M622.7,8.2
		c0,1.6-2.2,3.3-6.6,5.1l-22.4,11h-6.1L609,7.6c0.4-0.5,0.9-0.9,1.7-1.4c0.7-0.5,1.5-0.9,2.4-1.2c0.8-0.4,1.7-0.6,2.6-0.9
		c0.9-0.2,1.7-0.3,2.4-0.3C621.1,3.8,622.7,5.2,622.7,8.2z"/>
</g>
<g>
</g>
<g>
</g>
<g>
</g>
<g>
</g>
<g>
</g>
<g>
</g>
</svg>
