<?xml version="1.0" encoding="utf-8"?>
<!-- Generator: Adobe Illustrator 16.0.0, SVG Export Plug-In . SVG Version: 6.00 Build 0)  -->
<!DOCTYPE svg PUBLIC "-//W3C//DTD SVG 1.1//EN" "http://www.w3.org/Graphics/SVG/1.1/DTD/svg11.dtd">
<svg version="1.1" id="Layer_1" xmlns="http://www.w3.org/2000/svg" xmlns:xlink="http://www.w3.org/1999/xlink" x="0px" y="0px"
	 width="586.233px" height="105.288px" viewBox="0 0 586.233 105.288" enable-background="new 0 0 586.233 105.288"
	 xml:space="preserve">
<g>
	<path d="M121.775,99.119l8.957,2.745v1.444H96.929v-1.444l9.39-2.745l-6.067-83.639l-37.125,87.829H58.36L20.657,15.335
		l-6.212,84.073l8.812,2.745v1.155H2.022v-1.155l9.39-2.745l6.789-93.029l-9.39-2.745V2.19h22.102l36.113,85.229L102.852,2.19
		h21.235v1.445l-8.957,2.745L121.775,99.119z"/>
	<path d="M224.518,96.323l8.585,2.548v1.342h-32.328v-1.342l8.853-2.548l-11.268-27.23h-40.51l-11.805,27.23l11.805,2.548v1.342
		h-23.877v-1.342l9.122-2.548l39.303-90.008h4.427L224.518,96.323z M159.058,66.275h38.096L178.642,21.07L159.058,66.275z"/>
	<path d="M241.551,78.348h2.414c4.159,17.572,18.512,20.658,27.633,20.658c14.755,0,23.743-7.512,23.743-20.39
		c0-12.475-8.585-15.292-23.475-19.584c-15.158-4.426-30.047-8.585-30.047-26.962c0-14.755,9.524-26.56,30.852-26.56
		c9.122,0,16.365,2.28,22.536,6.304l5.634-3.89l1.341,1.341v19.048h-2.414c-3.89-17.438-17.036-20.792-25.084-20.792
		c-13.146,0-21.462,7.78-21.462,18.914c0,11.67,8.854,14.353,21.999,18.377c15.829,4.963,31.522,10.329,31.522,28.974
		c0,15.292-10.194,27.23-33.803,27.23c-9.658,0-17.438-2.146-24.279-6.305l-5.768,4.024l-1.341-1.342V78.348z"/>
	<path d="M362.811,5.51c26.561,0,45.205,18.511,45.205,47.753c0,29.511-18.645,47.754-45.205,47.754
		c-26.693,0-45.205-18.243-45.205-47.754C317.606,24.021,336.118,5.51,362.811,5.51z M362.811,99.006
		c17.438,0,29.914-15.427,29.914-45.608c0-30.315-12.476-45.876-29.914-45.876c-17.572,0-30.047,15.561-30.047,45.876
		C332.764,83.579,345.239,99.006,362.811,99.006z"/>
	<path d="M466.098,56.215c4.158,1.476,6.841,5.365,9.256,9.658l17.706,30.853l7.78,2.146v1.342h-20.792l-24.413-43.327h-15.561
		v39.438l8.719,2.548v1.342h-31.925v-1.342l8.719-2.548V9.534l-8.719-2.012V6.315h40.242c19.718,0,33.267,9.39,33.267,25.486
		C490.377,45.215,480.853,54.337,466.098,56.215z M440.075,8.998v45.205h15.292c11.805,0,20.255-7.512,20.255-22.535
		c0-15.158-8.45-22.67-20.255-22.67H440.075z"/>
	<path d="M575.523,100.42l6.789-14.734h2.312v17.623h-79.161v-1.155l9.389-2.312V5.657l-9.389-2.167v-1.3h77.716v17.768h-2.311
		l-6.79-14.879h-43.625v44.492H565.7l3.033-11.268h2.167v25.568h-2.167L565.7,52.605h-35.247v47.815H575.523z"/>
</g>
<g>
</g>
<g>
</g>
<g>
</g>
<g>
</g>
<g>
</g>
<g>
</g>
</svg>
